<svg xmlns="http://www.w3.org/2000/svg" x="0px" y="0px"
width="50" height="50"
viewBox="0 0 172 172"
style=" fill:#undefined;"><defs><linearGradient x1="77.9543" y1="31.06123" x2="35.88372" y2="155.34691" gradientUnits="userSpaceOnUse" id="color-1_VLKafOkk3sBX_gr1"><stop offset="0" stop-color="#cccccc"></stop><stop offset="1" stop-color="#cccccc"></stop></linearGradient><linearGradient x1="91.09505" y1="88.97685" x2="81.36406" y2="92.26904" gradientUnits="userSpaceOnUse" id="color-2_VLKafOkk3sBX_gr2"><stop offset="0" stop-color="#000000" stop-opacity="0.3"></stop><stop offset="0.071" stop-color="#000000" stop-opacity="0.2"></stop><stop offset="0.321" stop-color="#000000" stop-opacity="0.1"></stop><stop offset="0.623" stop-color="#000000" stop-opacity="0.05"></stop><stop offset="1" stop-color="#000000" stop-opacity="0"></stop></linearGradient><linearGradient x1="86.04479" y1="27.32112" x2="132.225" y2="150.35823" gradientUnits="userSpaceOnUse" id="color-3_VLKafOkk3sBX_gr3"><stop offset="0" stop-color="#000000"></stop><stop offset="1" stop-color="#000000"></stop></linearGradient></defs><g fill="none" fill-rule="nonzero" stroke="none" stroke-width="1" stroke-linecap="butt" stroke-linejoin="miter" stroke-miterlimit="10" stroke-dasharray="" stroke-dashoffset="0" font-family="none" font-weight="none" font-size="none" text-anchor="none" style="mix-blend-mode: normal"><path d="M0,172v-172h172v172z" fill="none"></path><g><path d="M63.1885,21.5h40.50958l-42.054,124.60325c-0.88508,2.62658 -3.34683,4.39317 -6.12033,4.39317h-31.52617c-3.56183,0 -6.45,-2.88817 -6.45,-6.45c0,-0.70233 0.11467,-1.3975 0.33683,-2.064l39.18375,-116.08567c0.88508,-2.62658 3.34683,-4.39675 6.12033,-4.39675z" fill="url(#color-1_VLKafOkk3sBX_gr1)"></path><path d="M122.0555,105.07767h-64.23842c-1.64117,-0.00358 -2.97417,1.32942 -2.97775,2.97058c0,0.82775 0.34042,1.61608 0.946,2.17867l41.28,38.528c1.20042,1.12158 2.78425,1.74508 4.429,1.74508h36.37442z" fill="#000000"></path><path d="M63.1885,21.5c-2.80575,-0.01075 -5.289,1.806 -6.13467,4.47917l-39.11925,115.90292c-1.20042,3.34683 0.54108,7.03767 3.88792,8.23808c0.70233,0.25083 1.44408,0.37983 2.193,0.37983h32.34317c2.451,-0.43717 4.47917,-2.16075 5.30692,-4.51142l7.80092,-22.99067l27.864,25.98992c1.16817,0.9675 2.63375,1.50142 4.1495,1.51217h36.24183l-15.89567,-45.42233l-46.33608,0.01075l28.35492,-83.58842z" fill="url(#color-2_VLKafOkk3sBX_gr2)"></path><path d="M114.93183,25.88958c-0.88508,-2.623 -3.34325,-4.38958 -6.11317,-4.38958h-45.15c2.76633,0 5.22808,1.76658 6.10958,4.386l39.18375,116.09642c1.1395,3.3755 -0.67367,7.03408 -4.04917,8.17358c-0.66292,0.22933 -1.35808,0.344 -2.06042,0.344h45.15c3.56183,0 6.45,-2.88817 6.45,-6.45358c0,-0.70233 -0.11467,-1.3975 -0.34042,-2.06042z" fill="url(#color-3_VLKafOkk3sBX_gr3)"></path></g></g></svg>